<svg xmlns="http://www.w3.org/2000/svg" width="640" height="336" viewBox="0 0 640 336">
<rect width="640" height="336" rx="10" fill="#292826"/>
<text x="24" y="38" font-family="ui-monospace,SFMono-Regular,Menlo,Consolas,monospace" font-size="11" fill="#beb69c" text-anchor="start" font-weight="600" xml:space="preserve">normal vision</text>
<text x="24" y="66" font-family="ui-monospace,SFMono-Regular,Menlo,Consolas,monospace" font-size="12" fill="#e2d7b5" text-anchor="start" xml:space="preserve">gruvbox</text>
<circle cx="118" cy="62" r="11" fill="#fb4934" stroke="#4e4d4c" stroke-width="1"/>
<circle cx="150" cy="62" r="11" fill="#fe8019" stroke="#4e4d4c" stroke-width="1"/>
<circle cx="182" cy="62" r="11" fill="#fabd2f" stroke="#4e4d4c" stroke-width="1"/>
<circle cx="214" cy="62" r="11" fill="#b8bb26" stroke="#4e4d4c" stroke-width="1"/>
<circle cx="246" cy="62" r="11" fill="#8ec07c" stroke="#4e4d4c" stroke-width="1"/>
<circle cx="278" cy="62" r="11" fill="#83a598" stroke="#4e4d4c" stroke-width="1"/>
<circle cx="310" cy="62" r="11" fill="#d3869b" stroke="#4e4d4c" stroke-width="1"/>
<text x="616" y="66" font-family="ui-monospace,SFMono-Regular,Menlo,Consolas,monospace" font-size="12" fill="#e2d7b5" text-anchor="end" xml:space="preserve">min &#916;E00 16.0</text>
<text x="24" y="98" font-family="ui-monospace,SFMono-Regular,Menlo,Consolas,monospace" font-size="12" fill="#e2d7b5" text-anchor="start" xml:space="preserve">enot</text>
<circle cx="118" cy="94" r="11" fill="#d7a0a1" stroke="#4e4d4c" stroke-width="1"/>
<circle cx="150" cy="94" r="11" fill="#ad8764" stroke="#4e4d4c" stroke-width="1"/>
<circle cx="182" cy="94" r="11" fill="#fde494" stroke="#4e4d4c" stroke-width="1"/>
<circle cx="214" cy="94" r="11" fill="#bab04d" stroke="#4e4d4c" stroke-width="1"/>
<circle cx="246" cy="94" r="11" fill="#9ff5e3" stroke="#4e4d4c" stroke-width="1"/>
<circle cx="278" cy="94" r="11" fill="#79cad9" stroke="#4e4d4c" stroke-width="1"/>
<circle cx="310" cy="94" r="11" fill="#c37fa1" stroke="#4e4d4c" stroke-width="1"/>
<text x="616" y="98" font-family="ui-monospace,SFMono-Regular,Menlo,Consolas,monospace" font-size="12" fill="#e2d7b5" text-anchor="end" xml:space="preserve">min &#916;E00 13.5</text>
<text x="24" y="138" font-family="ui-monospace,SFMono-Regular,Menlo,Consolas,monospace" font-size="11" fill="#beb69c" text-anchor="start" font-weight="600" xml:space="preserve">protanopia</text>
<text x="24" y="166" font-family="ui-monospace,SFMono-Regular,Menlo,Consolas,monospace" font-size="12" fill="#e2d7b5" text-anchor="start" xml:space="preserve">gruvbox</text>
<circle cx="118" cy="162" r="11" fill="#727237" stroke="#4e4d4c" stroke-width="1"/>
<circle cx="150" cy="162" r="11" fill="#96961e" stroke="#4e4d4c" stroke-width="1"/>
<circle cx="182" cy="162" r="11" fill="#c5c531" stroke="#4e4d4c" stroke-width="1"/>
<circle cx="214" cy="162" r="11" fill="#bbbb26" stroke="#4e4d4c" stroke-width="1"/>
<circle cx="246" cy="162" r="11" fill="#bbbb7c" stroke="#4e4d4c" stroke-width="1"/>
<circle cx="278" cy="162" r="11" fill="#a2a298" stroke="#4e4d4c" stroke-width="1"/>
<circle cx="310" cy="162" r="11" fill="#91919b" stroke="#4e4d4c" stroke-width="1"/>
<text x="616" y="166" font-family="ui-monospace,SFMono-Regular,Menlo,Consolas,monospace" font-size="12" fill="#e2d7b5" text-anchor="end" xml:space="preserve">min &#916;E00 2.6</text>
<text x="24" y="198" font-family="ui-monospace,SFMono-Regular,Menlo,Consolas,monospace" font-size="12" fill="#e2d7b5" text-anchor="start" xml:space="preserve">enot</text>
<circle cx="118" cy="194" r="11" fill="#a7a7a1" stroke="#4e4d4c" stroke-width="1"/>
<circle cx="150" cy="194" r="11" fill="#8c8c64" stroke="#4e4d4c" stroke-width="1"/>
<circle cx="182" cy="194" r="11" fill="#e7e794" stroke="#4e4d4c" stroke-width="1"/>
<circle cx="214" cy="194" r="11" fill="#b1b14d" stroke="#4e4d4c" stroke-width="1"/>
<circle cx="246" cy="194" r="11" fill="#edede3" stroke="#4e4d4c" stroke-width="1"/>
<circle cx="278" cy="194" r="11" fill="#c3c3d9" stroke="#4e4d4c" stroke-width="1"/>
<circle cx="310" cy="194" r="11" fill="#8989a1" stroke="#4e4d4c" stroke-width="1"/>
<text x="616" y="198" font-family="ui-monospace,SFMono-Regular,Menlo,Consolas,monospace" font-size="12" fill="#e2d7b5" text-anchor="end" xml:space="preserve">min &#916;E00 13.9</text>
<text x="24" y="238" font-family="ui-monospace,SFMono-Regular,Menlo,Consolas,monospace" font-size="11" fill="#beb69c" text-anchor="start" font-weight="600" xml:space="preserve">deuteranopia</text>
<text x="24" y="266" font-family="ui-monospace,SFMono-Regular,Menlo,Consolas,monospace" font-size="12" fill="#e2d7b5" text-anchor="start" xml:space="preserve">gruvbox</text>
<circle cx="118" cy="262" r="11" fill="#9b9b20" stroke="#4e4d4c" stroke-width="1"/>
<circle cx="150" cy="262" r="11" fill="#b2b200" stroke="#4e4d4c" stroke-width="1"/>
<circle cx="182" cy="262" r="11" fill="#d1d125" stroke="#4e4d4c" stroke-width="1"/>
<circle cx="214" cy="262" r="11" fill="#baba26" stroke="#4e4d4c" stroke-width="1"/>
<circle cx="246" cy="262" r="11" fill="#b3b37e" stroke="#4e4d4c" stroke-width="1"/>
<circle cx="278" cy="262" r="11" fill="#9c9c99" stroke="#4e4d4c" stroke-width="1"/>
<circle cx="310" cy="262" r="11" fill="#a2a299" stroke="#4e4d4c" stroke-width="1"/>
<text x="616" y="266" font-family="ui-monospace,SFMono-Regular,Menlo,Consolas,monospace" font-size="12" fill="#e2d7b5" text-anchor="end" xml:space="preserve">min &#916;E00 2.5</text>
<text x="24" y="298" font-family="ui-monospace,SFMono-Regular,Menlo,Consolas,monospace" font-size="12" fill="#e2d7b5" text-anchor="start" xml:space="preserve">enot</text>
<circle cx="118" cy="294" r="11" fill="#b2b29f" stroke="#4e4d4c" stroke-width="1"/>
<circle cx="150" cy="294" r="11" fill="#939363" stroke="#4e4d4c" stroke-width="1"/>
<circle cx="182" cy="294" r="11" fill="#ecec93" stroke="#4e4d4c" stroke-width="1"/>
<circle cx="214" cy="294" r="11" fill="#b3b34c" stroke="#4e4d4c" stroke-width="1"/>
<circle cx="246" cy="294" r="11" fill="#e0e0e5" stroke="#4e4d4c" stroke-width="1"/>
<circle cx="278" cy="294" r="11" fill="#b7b7da" stroke="#4e4d4c" stroke-width="1"/>
<circle cx="310" cy="294" r="11" fill="#97979f" stroke="#4e4d4c" stroke-width="1"/>
<text x="616" y="298" font-family="ui-monospace,SFMono-Regular,Menlo,Consolas,monospace" font-size="12" fill="#e2d7b5" text-anchor="end" xml:space="preserve">min &#916;E00 13.3</text>
</svg>
